<svg xmlns="http://www.w3.org/2000/svg" viewBox="0 0 100 100"><path fill="#ffffff" d="M91.6 24.3 65.3 48l-3 2.7h-4.1l1.5-2.9L76 16.1c.5-1 .1-2.3-.9-2.8s-2.3 0-2.7 1L57.5 46.5l-2 4.3H6.9c-1 0-1.9.9-1.9 1.9v1.2c0 13.7 7.3 23 18.3 29.5.6.3.9 1 .9 1.6 0 1 .9 1.9 1.9 1.9h33.1c.5 0 1-.2 1.4-.6.3-.4.6-.8.6-1.4 0-.7.4-1.3 1-1.6 11-6.4 18.3-15.8 18.3-29.5v-1.2c0-1-.9-1.9-1.9-1.9H66.2l.7-.5 27.3-22.9c.9-.7 1-2 .3-2.9-.7-.9-2.1-.9-2.9-.1zM27.8 75.4c-6-2-12.6-8.9-12.8-16.2v-.8h2.5v.8c.2 6.1 6 12.2 11.1 13.8l-.8 2.4z" class="color1a1a1a svgShape"></path></svg>